<svg xmlns="http://www.w3.org/2000/svg" xmlns:xlink="http://www.w3.org/1999/xlink" width="50" zoomAndPan="magnify" viewBox="0 0 37.5 37.499999" height="50" preserveAspectRatio="xMidYMid meet" version="1.0"><defs><clipPath id="266af5b871"><path d="M 19 6.363281 L 25 6.363281 L 25 12 L 19 12 Z M 19 6.363281 " clip-rule="nonzero"/></clipPath><clipPath id="667ef33d01"><path d="M 4.6875 25 L 32.070312 25 L 32.070312 30.785156 L 4.6875 30.785156 Z M 4.6875 25 " clip-rule="nonzero"/></clipPath><clipPath id="e9007c85cb"><path d="M 21 25 L 32.070312 25 L 32.070312 30.785156 L 21 30.785156 Z M 21 25 " clip-rule="nonzero"/></clipPath></defs><path fill="#07663a" d="M 29.21875 28.789062 C 29.84375 27.929688 30.296875 26.921875 30.519531 25.8125 C 31.339844 21.691406 28.667969 17.683594 24.546875 16.859375 C 20.425781 16.035156 16.417969 18.710938 15.59375 22.832031 C 15.371094 23.941406 15.402344 25.042969 15.648438 26.078125 Z M 29.21875 28.789062 " fill-opacity="1" fill-rule="nonzero"/><path fill="#03894a" d="M 30.121094 21.488281 C 29.441406 21.539062 28.476562 21.480469 27.179688 21.128906 C 24.636719 20.441406 21.84375 18.339844 19.460938 17.613281 C 17.703125 18.558594 16.328125 20.179688 15.746094 22.207031 C 16.597656 21.746094 17.804688 21.300781 19.363281 21.214844 C 22.839844 21.019531 26.332031 22.730469 28.304688 23 C 29.148438 23.113281 29.917969 23.015625 30.527344 22.863281 C 30.433594 22.390625 30.296875 21.933594 30.121094 21.488281 Z M 30.121094 21.488281 " fill-opacity="1" fill-rule="nonzero"/><path fill="#03894a" d="M 28.492188 26.132812 C 27.28125 25.835938 23.417969 22.769531 19.75 22.929688 C 17.699219 23.015625 16.300781 23.40625 15.46875 23.730469 C 15.40625 24.535156 15.46875 25.324219 15.648438 26.078125 L 29.21875 28.789062 C 29.828125 27.953125 30.273438 26.976562 30.5 25.90625 C 29.859375 26.113281 29.082031 26.277344 28.492188 26.132812 Z M 28.492188 26.132812 " fill-opacity="1" fill-rule="nonzero"/><path fill="#07663a" d="M 13.882812 10.746094 L 13.882812 10.742188 L 13.882812 10.746094 C 13.835938 10.914062 13.726562 11.039062 13.554688 11.113281 C 13.726562 11.1875 13.835938 11.308594 13.882812 11.480469 L 13.882812 11.484375 C 13.882812 11.484375 13.882812 11.484375 13.882812 11.480469 C 13.882812 11.484375 13.882812 11.484375 13.882812 11.484375 L 13.882812 11.480469 C 13.929688 11.308594 14.039062 11.1875 14.210938 11.113281 C 14.039062 11.039062 13.929688 10.914062 13.882812 10.746094 Z M 13.882812 10.746094 " fill-opacity="1" fill-rule="nonzero"/><path fill="#07663a" d="M 27.230469 7.847656 L 27.230469 7.84375 L 27.230469 7.847656 C 27.183594 8.019531 27.074219 8.140625 26.902344 8.214844 C 27.074219 8.289062 27.183594 8.410156 27.230469 8.582031 L 27.230469 8.585938 L 27.230469 8.582031 C 27.277344 8.410156 27.386719 8.289062 27.558594 8.214844 C 27.386719 8.140625 27.277344 8.019531 27.230469 7.847656 Z M 27.230469 7.847656 " fill-opacity="1" fill-rule="nonzero"/><path fill="#07663a" d="M 29.078125 14.296875 L 29.078125 14.292969 L 29.078125 14.296875 C 29.03125 14.464844 28.921875 14.589844 28.75 14.664062 C 28.921875 14.738281 29.03125 14.859375 29.078125 15.03125 L 29.078125 15.035156 C 29.078125 15.035156 29.078125 15.035156 29.078125 15.03125 C 29.078125 15.035156 29.078125 15.035156 29.078125 15.035156 L 29.078125 15.03125 C 29.128906 14.859375 29.238281 14.738281 29.40625 14.664062 C 29.238281 14.589844 29.128906 14.464844 29.078125 14.296875 Z M 29.078125 14.296875 " fill-opacity="1" fill-rule="nonzero"/><path fill="#07663a" d="M 6.25 21.214844 L 6.25 21.210938 C 6.25 21.210938 6.25 21.214844 6.25 21.214844 C 6.25 21.214844 6.25 21.210938 6.25 21.210938 L 6.25 21.214844 C 6.203125 21.386719 6.09375 21.507812 5.921875 21.582031 C 6.09375 21.65625 6.203125 21.78125 6.25 21.953125 L 6.25 21.957031 C 6.25 21.953125 6.25 21.953125 6.25 21.953125 C 6.25 21.953125 6.25 21.953125 6.25 21.957031 L 6.25 21.953125 C 6.296875 21.78125 6.40625 21.65625 6.578125 21.582031 C 6.40625 21.507812 6.296875 21.386719 6.25 21.214844 Z M 6.25 21.214844 " fill-opacity="1" fill-rule="nonzero"/><path fill="#07663a" d="M 29.96875 9.074219 L 29.96875 9.066406 C 29.96875 9.066406 29.964844 9.070312 29.964844 9.070312 C 29.964844 9.070312 29.964844 9.066406 29.964844 9.066406 L 29.964844 9.074219 C 29.871094 9.417969 29.652344 9.664062 29.308594 9.808594 C 29.652344 9.957031 29.871094 10.203125 29.964844 10.546875 L 29.964844 10.554688 C 29.964844 10.550781 29.964844 10.550781 29.964844 10.550781 C 29.964844 10.550781 29.96875 10.550781 29.96875 10.554688 L 29.96875 10.546875 C 30.0625 10.203125 30.28125 9.957031 30.625 9.808594 C 30.28125 9.664062 30.0625 9.417969 29.96875 9.074219 Z M 29.96875 9.074219 " fill-opacity="1" fill-rule="nonzero"/><path fill="#07663a" d="M 13.035156 18.605469 L 13.035156 18.597656 C 13.035156 18.601562 13.035156 18.601562 13.035156 18.601562 C 13.035156 18.601562 13.03125 18.601562 13.03125 18.597656 L 13.03125 18.605469 C 12.9375 18.949219 12.71875 19.195312 12.375 19.34375 C 12.71875 19.488281 12.9375 19.734375 13.03125 20.078125 L 13.03125 20.085938 C 13.03125 20.085938 13.035156 20.082031 13.035156 20.082031 C 13.035156 20.082031 13.035156 20.085938 13.035156 20.085938 L 13.035156 20.078125 C 13.128906 19.734375 13.347656 19.488281 13.691406 19.34375 C 13.347656 19.195312 13.128906 18.949219 13.035156 18.605469 Z M 13.035156 18.605469 " fill-opacity="1" fill-rule="nonzero"/><path fill="#07663a" d="M 11.285156 7.480469 L 11.285156 7.472656 C 11.285156 7.472656 11.285156 7.472656 11.285156 7.476562 C 11.28125 7.472656 11.28125 7.472656 11.28125 7.472656 L 11.28125 7.480469 C 11.1875 7.824219 10.96875 8.066406 10.625 8.214844 C 10.96875 8.363281 11.1875 8.609375 11.28125 8.953125 L 11.28125 8.957031 C 11.28125 8.957031 11.28125 8.957031 11.285156 8.953125 C 11.285156 8.957031 11.285156 8.957031 11.285156 8.957031 L 11.285156 8.953125 C 11.378906 8.609375 11.597656 8.363281 11.941406 8.214844 C 11.597656 8.066406 11.378906 7.824219 11.285156 7.480469 Z M 11.285156 7.480469 " fill-opacity="1" fill-rule="nonzero"/><g clip-path="url(#266af5b871)"><path fill="#07663a" d="M 24.902344 9.15625 C 24.902344 9.527344 24.832031 9.886719 24.6875 10.226562 C 24.546875 10.570312 24.34375 10.871094 24.082031 11.132812 C 23.820312 11.398438 23.519531 11.597656 23.175781 11.742188 C 22.832031 11.882812 22.476562 11.953125 22.105469 11.953125 C 21.734375 11.953125 21.378906 11.882812 21.035156 11.742188 C 20.695312 11.597656 20.390625 11.398438 20.128906 11.132812 C 19.867188 10.871094 19.664062 10.570312 19.523438 10.226562 C 19.382812 9.886719 19.3125 9.527344 19.3125 9.15625 C 19.3125 8.789062 19.382812 8.429688 19.523438 8.089844 C 19.664062 7.746094 19.867188 7.441406 20.128906 7.179688 C 20.390625 6.917969 20.695312 6.71875 21.035156 6.574219 C 21.378906 6.433594 21.734375 6.363281 22.105469 6.363281 C 22.476562 6.363281 22.832031 6.433594 23.175781 6.574219 C 23.519531 6.71875 23.820312 6.917969 24.082031 7.179688 C 24.34375 7.441406 24.546875 7.746094 24.6875 8.089844 C 24.832031 8.429688 24.902344 8.789062 24.902344 9.15625 Z M 24.902344 9.15625 " fill-opacity="1" fill-rule="nonzero"/><path fill="#03894a" d="M 22.65625 6.417969 C 22.675781 6.835938 22.644531 7.273438 22.503906 7.570312 C 22.15625 8.308594 21.609375 8.542969 20.363281 9.15625 C 19.851562 9.410156 19.644531 9.878906 19.574219 10.34375 C 19.773438 10.765625 20.074219 11.132812 20.445312 11.40625 C 20.53125 11.054688 20.691406 10.664062 20.984375 10.335938 C 21.726562 9.519531 22.855469 10.296875 24.164062 9.636719 C 24.511719 9.460938 24.738281 9.167969 24.882812 8.835938 C 24.746094 7.628906 23.835938 6.652344 22.65625 6.417969 Z M 22.65625 6.417969 " fill-opacity="1" fill-rule="nonzero"/></g><path fill="#07663a" d="M 11.308594 16.082031 C 11.308594 16.386719 11.25 16.683594 11.128906 16.96875 C 11.011719 17.25 10.84375 17.5 10.628906 17.71875 C 10.410156 17.9375 10.160156 18.105469 9.875 18.222656 C 9.59375 18.339844 9.296875 18.398438 8.988281 18.398438 C 8.683594 18.398438 8.386719 18.339844 8.101562 18.222656 C 7.820312 18.105469 7.570312 17.9375 7.351562 17.71875 C 7.132812 17.5 6.964844 17.25 6.847656 16.96875 C 6.730469 16.683594 6.671875 16.386719 6.671875 16.082031 C 6.671875 15.773438 6.730469 15.476562 6.847656 15.195312 C 6.964844 14.910156 7.132812 14.660156 7.351562 14.441406 C 7.570312 14.226562 7.820312 14.058594 8.101562 13.941406 C 8.386719 13.820312 8.683594 13.761719 8.988281 13.761719 C 9.296875 13.761719 9.59375 13.820312 9.875 13.941406 C 10.160156 14.058594 10.410156 14.226562 10.628906 14.441406 C 10.84375 14.660156 11.011719 14.910156 11.128906 15.195312 C 11.25 15.476562 11.308594 15.773438 11.308594 16.082031 Z M 11.308594 16.082031 " fill-opacity="1" fill-rule="nonzero"/><path fill="#03894a" d="M 5.480469 18.136719 C 5.277344 18.136719 5.15625 18.09375 5.113281 18 C 5.058594 17.867188 5.179688 17.679688 5.496094 17.421875 C 5.773438 17.191406 6.199219 16.914062 6.722656 16.617188 C 6.746094 16.605469 6.777344 16.613281 6.789062 16.636719 C 6.804688 16.660156 6.792969 16.691406 6.769531 16.703125 C 6.253906 16.996094 5.832031 17.273438 5.558594 17.496094 C 5.179688 17.808594 5.195312 17.929688 5.207031 17.960938 C 5.222656 17.996094 5.359375 18.160156 6.484375 17.863281 C 7.273438 17.65625 8.277344 17.289062 9.320312 16.832031 C 10.363281 16.375 11.3125 15.878906 11.996094 15.441406 C 12.976562 14.8125 12.949219 14.597656 12.929688 14.5625 C 12.917969 14.53125 12.839844 14.441406 12.363281 14.507812 C 12.015625 14.554688 11.535156 14.675781 10.976562 14.859375 C 10.953125 14.867188 10.921875 14.851562 10.914062 14.824219 C 10.90625 14.800781 10.921875 14.769531 10.945312 14.761719 C 11.511719 14.578125 11.996094 14.457031 12.347656 14.410156 C 12.746094 14.355469 12.964844 14.390625 13.023438 14.523438 C 13.070312 14.628906 13 14.769531 12.8125 14.953125 C 12.644531 15.117188 12.386719 15.308594 12.050781 15.523438 C 11.363281 15.96875 10.40625 16.464844 9.359375 16.925781 C 8.316406 17.382812 7.300781 17.753906 6.511719 17.960938 C 6.125 18.0625 5.808594 18.121094 5.578125 18.136719 C 5.542969 18.136719 5.511719 18.136719 5.480469 18.136719 Z M 5.480469 18.136719 " fill-opacity="1" fill-rule="nonzero"/><g clip-path="url(#667ef33d01)"><path fill="#012e19" d="M 32.304688 30.636719 C 28.648438 27.34375 23.808594 25.335938 18.5 25.335938 C 13.191406 25.335938 8.355469 27.34375 4.699219 30.636719 " fill-opacity="1" fill-rule="nonzero"/></g><g clip-path="url(#e9007c85cb)"><path fill="#07663a" d="M 21.921875 30.636719 L 32.304688 30.636719 C 29.878906 28.449219 26.929688 26.832031 23.671875 25.992188 C 24.074219 26.96875 24.367188 28.007812 24.21875 28.726562 C 24.109375 29.242188 23.164062 30.316406 21.921875 30.636719 Z M 21.921875 30.636719 " fill-opacity="1" fill-rule="nonzero"/></g><path fill="#012e19" d="M 6.71875 29.03125 L 6.71875 28.191406 C 6.71875 28.191406 7.839844 26.96875 9.179688 26.21875 C 11.488281 24.925781 12.667969 25.082031 12.667969 25.082031 L 14.308594 25.765625 C 14.308594 25.765625 13.222656 27.292969 11.03125 28.398438 C 9.433594 29.207031 8.082031 29.519531 8.082031 29.519531 Z M 6.71875 29.03125 " fill-opacity="1" fill-rule="nonzero"/><path fill="#012e19" d="M 22.238281 25.675781 C 22.238281 25.675781 23.46875 25.335938 23.644531 25.335938 C 24.164062 25.335938 24.984375 25.433594 26.859375 26.300781 C 28.734375 27.171875 29.851562 28.125 29.851562 28.125 L 30.519531 29.199219 C 30.519531 29.199219 28.566406 29.683594 26.191406 28.546875 C 24.332031 27.65625 23.460938 27.078125 22.890625 26.46875 C 22.539062 26.09375 22.238281 25.675781 22.238281 25.675781 Z M 22.238281 25.675781 " fill-opacity="1" fill-rule="nonzero"/><path fill="#07663a" d="M 23.851562 25.472656 C 23.851562 25.472656 23.925781 26.128906 25.980469 27.210938 C 28.398438 28.484375 29.539062 28.199219 29.539062 28.199219 C 29.539062 28.199219 28.714844 27.394531 26.96875 26.503906 C 25.222656 25.617188 23.851562 25.472656 23.851562 25.472656 Z M 23.851562 25.472656 " fill-opacity="1" fill-rule="nonzero"/><path fill="#07663a" d="M 6.980469 28.140625 C 6.980469 28.140625 8.316406 28.113281 10.160156 27.070312 C 12.003906 26.03125 12.492188 25.183594 12.492188 25.183594 C 12.492188 25.183594 10.8125 25.402344 9.230469 26.355469 C 7.652344 27.304688 6.980469 28.140625 6.980469 28.140625 Z M 6.980469 28.140625 " fill-opacity="1" fill-rule="nonzero"/></svg>