<svg width="122" height="51" viewBox="0 0 122 51" fill="none" xmlns="http://www.w3.org/2000/svg">
<g clip-path="url(#clip0_797_2633)">
<path d="M42.1794 48.7492C40.2053 49.1996 38.2988 49.2893 36.4557 49.0161C34.6168 48.7387 32.9069 48.0714 31.3238 47.0141L32.0255 45.1122C33.6995 46.0861 35.3016 46.7034 36.8361 46.964C38.3685 47.2268 39.9601 47.1684 41.613 46.7889C43.7435 46.305 45.3668 45.475 46.4828 44.2947C47.5988 43.1102 47.9729 41.7338 47.6073 40.1655C47.3536 39.0978 46.8485 38.345 46.0939 37.9049C45.3372 37.467 44.3354 37.2022 43.0841 37.1125C41.837 37.0186 40.3406 36.9582 38.5947 36.929C36.8065 36.8747 35.2763 36.7434 34.0039 36.5369C32.7357 36.3263 31.7253 35.9092 30.9771 35.2856C30.2289 34.6642 29.7005 33.7091 29.3961 32.4244C29.0241 30.8291 29.1234 29.4131 29.692 28.1785C30.2564 26.9439 31.1652 25.9096 32.4228 25.0754C33.6847 24.2412 35.1579 23.6323 36.8446 23.2486C38.7828 22.8044 40.5477 22.7293 42.1372 23.0233C43.7308 23.3195 45.0329 23.8971 46.0432 24.7584L45.1132 26.5519C44.0754 25.7344 42.8643 25.2297 41.4777 25.0337C40.0954 24.8397 38.6412 24.9169 37.1151 25.2673C35.9759 25.53 34.9339 25.9346 33.9869 26.4851C33.04 27.0315 32.3383 27.726 31.8818 28.5706C31.4294 29.4173 31.3428 30.4349 31.6197 31.6236C31.8437 32.5704 32.2495 33.2565 32.8371 33.684C33.4226 34.1136 34.2152 34.3847 35.2129 34.5015C36.2105 34.6183 37.4385 34.7101 38.8991 34.7768C40.9493 34.7997 42.7311 34.9019 44.2424 35.0854C45.7578 35.269 46.9901 35.6735 47.937 36.295C48.8881 36.9185 49.5349 37.9508 49.8731 39.3898C50.3973 41.6212 49.9513 43.5773 48.5373 45.2623C47.1275 46.9432 45.0075 48.1048 42.1794 48.7492Z" fill="#00FF7F"/>
<path d="M49.4087 49.3518C47.6882 49.0452 46.141 48.4217 44.7671 47.4833C43.3975 46.549 42.2646 45.3958 41.3684 44.0215C40.4722 42.6492 39.855 41.1415 39.5168 39.5003C39.1787 37.8549 39.166 36.1531 39.483 34.3951C39.91 32.0428 40.821 30.0199 42.2138 28.3224C43.6046 26.6207 45.3251 25.3736 47.3711 24.5769C49.4214 23.7761 51.6238 23.5843 53.9742 24.0014C56.2337 24.4018 58.1275 25.2651 59.6557 26.5873C61.1817 27.9053 62.2132 29.5194 62.75 31.4255L60.2813 31.7675C59.7952 30.2827 58.9476 29.0398 57.7365 28.0388C56.5296 27.0336 55.1113 26.3871 53.4838 26.1035C51.6745 25.7823 49.954 25.945 48.3265 26.5956C46.7032 27.2421 45.3103 28.2786 44.15 29.7071C42.9874 31.1314 42.2265 32.8331 41.8672 34.8122C41.5163 36.7537 41.6389 38.6202 42.2308 40.4095C42.8226 42.2009 43.7653 43.7045 45.063 44.9224C46.3651 46.1402 47.9059 46.9077 49.6877 47.2247C50.8312 47.4249 51.9916 47.4103 53.171 47.183C54.3483 46.9536 55.403 46.5678 56.333 46.0235C57.2672 45.4792 57.9352 44.8369 58.3367 44.0965L60.5434 45.1643C59.922 46.2487 59.0216 47.1454 57.8379 47.8586C56.6585 48.5698 55.348 49.064 53.9065 49.3435C52.4629 49.6208 50.9643 49.6229 49.4087 49.3518Z" fill="#00FF7F"/>
<mask id="mask0_797_2633" style="mask-type:luminance" maskUnits="userSpaceOnUse" x="44" y="9" width="14" height="15">
<path d="M44.4297 9.60938H57.957V23.49H44.4297V9.60938Z" fill="white"/>
</mask>
<g mask="url(#mask0_797_2633)">
<mask id="mask1_797_2633" style="mask-type:luminance" maskUnits="userSpaceOnUse" x="42" y="9" width="18" height="18">
<path d="M42.3711 11.5844L57.6929 9.85352L59.4007 24.5725L44.0789 26.3034L42.3711 11.5844Z" fill="white"/>
</mask>
<g mask="url(#mask1_797_2633)">
<mask id="mask2_797_2633" style="mask-type:luminance" maskUnits="userSpaceOnUse" x="42" y="9" width="18" height="18">
<path d="M42.3711 11.5844L57.6929 9.85352L59.4007 24.5725L44.0789 26.3034L42.3711 11.5844Z" fill="white"/>
</mask>
<g mask="url(#mask2_797_2633)">
<path d="M46.8844 23.4088C46.7935 23.4171 46.7047 23.4275 46.6138 23.4359C45.7113 23.5256 44.9039 22.9291 44.7327 22.0491C44.4241 20.4495 44.2085 17.3694 46.2482 14.7084C48.2667 12.0766 51.9698 10.5021 57.2539 10.0391L57.6386 10.0078L57.6407 10.3874C57.6407 10.525 57.6407 13.7908 56.5628 16.7125C55.8822 18.556 54.8676 19.9741 53.4642 21.0543C51.8303 22.3077 49.6173 23.098 46.8844 23.4088ZM56.5121 10.8149C51.8641 11.3404 48.6028 12.7919 46.8104 15.1338C44.9377 17.58 45.1406 20.437 45.4281 21.9219C45.5274 22.4432 46.0072 22.7977 46.542 22.7435C49.2644 22.4703 51.4478 21.7154 53.0309 20.4996C54.3265 19.5069 55.265 18.1869 55.897 16.4726C56.7234 14.2329 56.8904 11.7158 56.9242 10.7732C56.7868 10.7857 56.6494 10.8003 56.5121 10.8149Z" fill="#00FF7F"/>
</g>
</g>
</g>
<mask id="mask3_797_2633" style="mask-type:luminance" maskUnits="userSpaceOnUse" x="43" y="11" width="14" height="16">
<path d="M43.8906 11.2109H56.3358V26.1593H43.8906V11.2109Z" fill="white"/>
</mask>
<g mask="url(#mask3_797_2633)">
<mask id="mask4_797_2633" style="mask-type:luminance" maskUnits="userSpaceOnUse" x="42" y="9" width="18" height="18">
<path d="M42.3711 11.5844L57.6929 9.85352L59.4007 24.5725L44.0789 26.3034L42.3711 11.5844Z" fill="white"/>
</mask>
<g mask="url(#mask4_797_2633)">
<mask id="mask5_797_2633" style="mask-type:luminance" maskUnits="userSpaceOnUse" x="42" y="9" width="18" height="18">
<path d="M42.3711 11.5844L57.6929 9.85352L59.4007 24.5725L44.0789 26.3034L42.3711 11.5844Z" fill="white"/>
</mask>
<g mask="url(#mask5_797_2633)">
<path d="M44.0637 25.5034C44.1651 25.0843 44.3025 24.7256 44.4462 24.3502C44.5942 23.9811 44.7464 23.614 44.9239 23.2616C45.2642 22.5484 45.6616 21.8664 46.0801 21.2012C46.9234 19.8686 47.9084 18.6403 48.9462 17.4641L49.7451 16.6028C50.0115 16.3171 50.301 16.0502 50.5758 15.7728C51.1253 15.216 51.7256 14.7093 52.3069 14.1879C52.5922 13.9251 52.9029 13.6832 53.2052 13.4371C53.5053 13.189 53.8139 12.9492 54.1183 12.7072C54.7439 12.2422 55.378 11.7876 56.0163 11.3413C56.0396 11.3267 56.0713 11.3288 56.0861 11.3517C56.1009 11.3705 56.0966 11.3997 56.0776 11.4164L54.3529 12.9763C53.8054 13.5247 53.2242 14.0336 52.6916 14.5925C52.1589 15.1472 51.6157 15.6957 51.1169 16.2775C50.8633 16.5653 50.5969 16.8447 50.3539 17.1388L49.6247 18.0272C48.6693 19.22 47.7816 20.4629 46.9763 21.7517C46.581 22.3982 46.19 23.0489 45.8433 23.7183C45.7546 23.883 45.6637 24.052 45.5834 24.2209C45.5009 24.3877 45.41 24.5566 45.334 24.7276C45.1797 25.0592 45.0211 25.4179 44.9007 25.737L44.8901 25.7578C44.8055 25.981 44.554 26.0915 44.3279 26.0081C44.1249 25.9309 44.0108 25.712 44.0637 25.5034Z" fill="#00FF7F"/>
</g>
</g>
</g>
<mask id="mask6_797_2633" style="mask-type:luminance" maskUnits="userSpaceOnUse" x="47" y="18" width="8" height="3">
<path d="M47.1367 18.6855H54.1709V20.2872H47.1367V18.6855Z" fill="white"/>
</mask>
<g mask="url(#mask6_797_2633)">
<mask id="mask7_797_2633" style="mask-type:luminance" maskUnits="userSpaceOnUse" x="42" y="9" width="18" height="18">
<path d="M42.3711 11.5844L57.6929 9.85352L59.4007 24.5725L44.0789 26.3034L42.3711 11.5844Z" fill="white"/>
</mask>
<g mask="url(#mask7_797_2633)">
<mask id="mask8_797_2633" style="mask-type:luminance" maskUnits="userSpaceOnUse" x="42" y="9" width="18" height="18">
<path d="M42.3711 11.5844L57.6929 9.85352L59.4007 24.5725L44.0789 26.3034L42.3711 11.5844Z" fill="white"/>
</mask>
<g mask="url(#mask8_797_2633)">
<path d="M47.9149 19.0928C48.4095 18.9573 48.8872 18.8697 49.3776 18.805C49.8679 18.7404 50.3583 18.707 50.8487 18.707C51.339 18.7091 51.8315 18.7529 52.3113 18.8363C52.7932 18.926 53.2603 19.0782 53.7021 19.2764C53.7232 19.2868 53.7317 19.3097 53.7211 19.3306C53.7148 19.3493 53.6915 19.3577 53.6704 19.3514H53.6683C53.2159 19.1992 52.7488 19.1012 52.2796 19.0636C51.8083 19.0324 51.3348 19.0407 50.8656 19.0866C50.3963 19.1366 49.9313 19.22 49.4727 19.3264C49.0204 19.4348 48.5596 19.5725 48.1411 19.7351L48.1305 19.7393C47.9551 19.8081 47.7543 19.7247 47.6845 19.5475C47.6148 19.3723 47.6993 19.1742 47.879 19.1053C47.8917 19.1012 47.9022 19.097 47.9149 19.0928Z" fill="#00FF7F"/>
</g>
</g>
</g>
<mask id="mask9_797_2633" style="mask-type:luminance" maskUnits="userSpaceOnUse" x="50" y="15" width="6" height="3">
<path d="M50.3828 15.4824H55.2527V17.084H50.3828V15.4824Z" fill="white"/>
</mask>
<g mask="url(#mask9_797_2633)">
<mask id="mask10_797_2633" style="mask-type:luminance" maskUnits="userSpaceOnUse" x="42" y="9" width="18" height="18">
<path d="M42.3711 11.5844L57.6929 9.85352L59.4007 24.5725L44.0789 26.3034L42.3711 11.5844Z" fill="white"/>
</mask>
<g mask="url(#mask10_797_2633)">
<mask id="mask11_797_2633" style="mask-type:luminance" maskUnits="userSpaceOnUse" x="42" y="9" width="18" height="18">
<path d="M42.3711 11.5844L57.6929 9.85352L59.4007 24.5725L44.0789 26.3034L42.3711 11.5844Z" fill="white"/>
</mask>
<g mask="url(#mask11_797_2633)">
<path d="M50.708 16.1177C51.0715 16.0051 51.4224 15.9258 51.7838 15.8591C52.1431 15.7986 52.5088 15.7548 52.8724 15.7381C53.238 15.7235 53.6058 15.736 53.9651 15.7861C54.3265 15.8466 54.6795 15.9425 55.0093 16.0947C55.0219 16.1031 55.0304 16.1198 55.0219 16.1323C55.0156 16.1448 55.0008 16.1531 54.9881 16.149C54.6499 16.0343 54.3012 15.9738 53.9524 15.9529C53.5995 15.9404 53.2465 15.9613 52.9019 16.0113C52.5532 16.0614 52.2108 16.1364 51.8747 16.2324C51.5408 16.3283 51.1983 16.443 50.8898 16.5744L50.8855 16.5786C50.7587 16.6328 50.6129 16.5765 50.56 16.4534C50.5051 16.3304 50.5621 16.1865 50.6847 16.1323C50.6932 16.1239 50.6995 16.1198 50.708 16.1177Z" fill="#00FF7F"/>
</g>
</g>
</g>
<mask id="mask12_797_2633" style="mask-type:luminance" maskUnits="userSpaceOnUse" x="48" y="13" width="2" height="5">
<path d="M48.2188 13.3477H49.842V17.6186H48.2188V13.3477Z" fill="white"/>
</mask>
<g mask="url(#mask12_797_2633)">
<mask id="mask13_797_2633" style="mask-type:luminance" maskUnits="userSpaceOnUse" x="42" y="9" width="18" height="18">
<path d="M42.3711 11.5864L57.6929 9.85547L59.4007 24.5744L44.0789 26.3053L42.3711 11.5864Z" fill="white"/>
</mask>
<g mask="url(#mask13_797_2633)">
<mask id="mask14_797_2633" style="mask-type:luminance" maskUnits="userSpaceOnUse" x="42" y="9" width="18" height="18">
<path d="M42.3711 11.5864L57.6929 9.85547L59.4007 24.5744L44.0789 26.3053L42.3711 11.5864Z" fill="white"/>
</mask>
<g mask="url(#mask14_797_2633)">
<path d="M49.2892 17.2608C49.2955 16.9584 49.2744 16.6331 49.2384 16.3182C49.2025 15.9991 49.1433 15.6863 49.0715 15.3756C48.9975 15.0648 48.9045 14.7562 48.7861 14.4559C48.6762 14.1535 48.5283 13.8657 48.3718 13.58V13.5758C48.3613 13.5571 48.3697 13.5341 48.3866 13.5237C48.4057 13.5154 48.4268 13.5195 48.4374 13.5362C48.6234 13.8073 48.8051 14.0868 48.9468 14.385C49.0947 14.6811 49.2258 14.9856 49.3336 15.2984C49.4435 15.6112 49.5365 15.9303 49.6041 16.2556C49.676 16.5809 49.7309 16.9021 49.7605 17.2524C49.769 17.3817 49.6739 17.4923 49.5428 17.5027C49.4118 17.511 49.2976 17.4172 49.2892 17.2879C49.2892 17.2775 49.2871 17.2733 49.2892 17.2629V17.2608Z" fill="#00FF7F"/>
</g>
</g>
</g>
<mask id="mask15_797_2633" style="mask-type:luminance" maskUnits="userSpaceOnUse" x="45" y="16" width="3" height="5">
<path d="M45.5117 16.5508H47.6761V20.8217H45.5117V16.5508Z" fill="white"/>
</mask>
<g mask="url(#mask15_797_2633)">
<mask id="mask16_797_2633" style="mask-type:luminance" maskUnits="userSpaceOnUse" x="42" y="9" width="18" height="18">
<path d="M42.3711 11.5844L57.6929 9.85352L59.4007 24.5725L44.0789 26.3034L42.3711 11.5844Z" fill="white"/>
</mask>
<g mask="url(#mask16_797_2633)">
<mask id="mask17_797_2633" style="mask-type:luminance" maskUnits="userSpaceOnUse" x="42" y="9" width="18" height="18">
<path d="M42.3711 11.5844L57.6929 9.85352L59.4007 24.5725L44.0789 26.3034L42.3711 11.5844Z" fill="white"/>
</mask>
<g mask="url(#mask17_797_2633)">
<path d="M46.6476 20.448C46.6222 20.1435 46.5672 19.8119 46.5059 19.4949C46.4446 19.1717 46.3664 18.8568 46.2756 18.5419C46.1868 18.227 46.079 17.9121 45.9585 17.6076C45.838 17.299 45.6922 17.0029 45.5379 16.7067V16.7046C45.5231 16.6754 45.5337 16.64 45.5633 16.6254C45.5886 16.6129 45.6203 16.6191 45.6393 16.6442C45.838 16.9153 46.0304 17.1989 46.1973 17.4929C46.3664 17.787 46.5207 18.0873 46.6623 18.4001C46.804 18.7087 46.9329 19.0257 47.047 19.3469C47.1612 19.6722 47.2626 19.9913 47.3472 20.3416C47.3937 20.5314 47.2732 20.717 47.0851 20.7629C46.8927 20.8088 46.7025 20.6899 46.6581 20.5043C46.6518 20.4897 46.6497 20.4709 46.6476 20.4563V20.448Z" fill="#00FF7F"/>
</g>
</g>
</g>
<mask id="mask18_797_2633" style="mask-type:luminance" maskUnits="userSpaceOnUse" x="51" y="12" width="2" height="4">
<path d="M51.4648 12.2793H52.5461V15.4825H51.4648V12.2793Z" fill="white"/>
</mask>
<g mask="url(#mask18_797_2633)">
<mask id="mask19_797_2633" style="mask-type:luminance" maskUnits="userSpaceOnUse" x="42" y="9" width="18" height="18">
<path d="M42.3711 11.5844L57.6929 9.85352L59.4007 24.5725L44.0789 26.3034L42.3711 11.5844Z" fill="white"/>
</mask>
<g mask="url(#mask19_797_2633)">
<mask id="mask20_797_2633" style="mask-type:luminance" maskUnits="userSpaceOnUse" x="42" y="9" width="18" height="18">
<path d="M42.3711 11.5844L57.6929 9.85352L59.4007 24.5725L44.0789 26.3034L42.3711 11.5844Z" fill="white"/>
</mask>
<g mask="url(#mask20_797_2633)">
<path d="M51.828 14.9687C51.8723 14.5787 51.8913 14.1763 51.885 13.7759C51.8808 13.3755 51.8491 12.9751 51.7815 12.5788C51.7794 12.5601 51.79 12.5434 51.809 12.5413C51.8238 12.5392 51.8406 12.5496 51.8449 12.5642C51.9653 12.9563 52.0518 13.3567 52.1067 13.7592C52.1659 14.1658 52.2039 14.5704 52.2123 14.9917C52.2166 15.098 52.13 15.1835 52.0223 15.1856C51.9146 15.1898 51.828 15.1043 51.8259 14.9979C51.8238 14.9896 51.828 14.9833 51.8259 14.975L51.828 14.9687Z" fill="#00FF7F"/>
</g>
</g>
</g>
<mask id="mask21_797_2633" style="mask-type:luminance" maskUnits="userSpaceOnUse" x="54" y="4" width="2" height="1">
<path d="M54.7109 4.27148H55.2517V4.80549H54.7109V4.27148Z" fill="white"/>
</mask>
<g mask="url(#mask21_797_2633)">
<mask id="mask22_797_2633" style="mask-type:luminance" maskUnits="userSpaceOnUse" x="40" y="-3" width="19" height="19">
<path d="M50.2571 -2.72656L58.3059 8.33037L48.748 15.1038L40.6992 4.0469L50.2571 -2.72656Z" fill="white"/>
</mask>
<g mask="url(#mask22_797_2633)">
<mask id="mask23_797_2633" style="mask-type:luminance" maskUnits="userSpaceOnUse" x="40" y="-3" width="19" height="19">
<path d="M50.2571 -2.72656L58.3059 8.33037L48.748 15.1038L40.6992 4.0469L50.2571 -2.72656Z" fill="white"/>
</mask>
<g mask="url(#mask23_797_2633)">
<mask id="mask24_797_2633" style="mask-type:luminance" maskUnits="userSpaceOnUse" x="40" y="-3" width="19" height="19">
<path d="M50.2571 -2.72656L58.3059 8.33037L48.748 15.1038L40.6992 4.0469L50.2571 -2.72656Z" fill="white"/>
</mask>
<g mask="url(#mask24_797_2633)">
<path d="M54.7812 4.64053C54.7877 4.63554 54.7921 4.63054 54.8007 4.62305C54.7942 4.62554 54.7877 4.63054 54.7812 4.64053Z" fill="#00FF7F"/>
</g>
</g>
</g>
</g>
<mask id="mask25_797_2633" style="mask-type:luminance" maskUnits="userSpaceOnUse" x="48" y="6" width="1" height="1">
<path d="M48.2188 6.40625H48.7595V6.94026H48.2188V6.40625Z" fill="white"/>
</mask>
<g mask="url(#mask25_797_2633)">
<mask id="mask26_797_2633" style="mask-type:luminance" maskUnits="userSpaceOnUse" x="40" y="-3" width="19" height="19">
<path d="M50.2571 -2.72852L58.3059 8.32841L48.748 15.1019L40.6992 4.04495L50.2571 -2.72852Z" fill="white"/>
</mask>
<g mask="url(#mask26_797_2633)">
<mask id="mask27_797_2633" style="mask-type:luminance" maskUnits="userSpaceOnUse" x="40" y="-3" width="19" height="19">
<path d="M50.2571 -2.72852L58.3059 8.32841L48.748 15.1019L40.6992 4.04495L50.2571 -2.72852Z" fill="white"/>
</mask>
<g mask="url(#mask27_797_2633)">
<mask id="mask28_797_2633" style="mask-type:luminance" maskUnits="userSpaceOnUse" x="40" y="-3" width="19" height="19">
<path d="M50.2571 -2.72852L58.3059 8.32841L48.748 15.1019L40.6992 4.04495L50.2571 -2.72852Z" fill="white"/>
</mask>
<g mask="url(#mask28_797_2633)">
<path d="M48.2882 6.50284C48.2882 6.49603 48.2903 6.48923 48.2903 6.48242C48.2838 6.4983 48.2838 6.50737 48.2882 6.50284Z" fill="#00FF7F"/>
</g>
</g>
</g>
</g>
<mask id="mask29_797_2633" style="mask-type:luminance" maskUnits="userSpaceOnUse" x="52" y="10" width="2" height="1">
<path d="M52.5469 10.1426H53.0877V10.6766H52.5469V10.1426Z" fill="white"/>
</mask>
<g mask="url(#mask29_797_2633)">
<mask id="mask30_797_2633" style="mask-type:luminance" maskUnits="userSpaceOnUse" x="40" y="-3" width="19" height="19">
<path d="M50.2571 -2.72852L58.3059 8.32841L48.748 15.1019L40.6992 4.04495L50.2571 -2.72852Z" fill="white"/>
</mask>
<g mask="url(#mask30_797_2633)">
<mask id="mask31_797_2633" style="mask-type:luminance" maskUnits="userSpaceOnUse" x="40" y="-3" width="19" height="19">
<path d="M50.2571 -2.72852L58.3059 8.32841L48.748 15.1019L40.6992 4.04495L50.2571 -2.72852Z" fill="white"/>
</mask>
<g mask="url(#mask31_797_2633)">
<mask id="mask32_797_2633" style="mask-type:luminance" maskUnits="userSpaceOnUse" x="40" y="-3" width="19" height="19">
<path d="M50.2571 -2.72852L58.3059 8.32841L48.748 15.1019L40.6992 4.04495L50.2571 -2.72852Z" fill="white"/>
</mask>
<g mask="url(#mask32_797_2633)">
<path d="M52.7812 10.5711C52.7895 10.5711 52.795 10.5684 52.8005 10.5684C52.7977 10.5684 52.7895 10.5684 52.7812 10.5711Z" fill="#00FF7F"/>
</g>
</g>
</g>
</g>
<mask id="mask33_797_2633" style="mask-type:luminance" maskUnits="userSpaceOnUse" x="44" y="0" width="9" height="12">
<path d="M44.4297 0H52.5461V11.7451H44.4297V0Z" fill="white"/>
</mask>
<g mask="url(#mask33_797_2633)">
<mask id="mask34_797_2633" style="mask-type:luminance" maskUnits="userSpaceOnUse" x="40" y="-3" width="19" height="19">
<path d="M50.2571 -2.72852L58.3059 8.32841L48.748 15.1019L40.6992 4.04495L50.2571 -2.72852Z" fill="white"/>
</mask>
<g mask="url(#mask34_797_2633)">
<mask id="mask35_797_2633" style="mask-type:luminance" maskUnits="userSpaceOnUse" x="40" y="-3" width="19" height="19">
<path d="M50.2571 -2.72852L58.3059 8.32841L48.748 15.1019L40.6992 4.04495L50.2571 -2.72852Z" fill="white"/>
</mask>
<g mask="url(#mask35_797_2633)">
<mask id="mask36_797_2633" style="mask-type:luminance" maskUnits="userSpaceOnUse" x="40" y="-3" width="19" height="19">
<path d="M50.2571 -2.72852L58.3059 8.32841L48.748 15.1019L40.6992 4.04495L50.2571 -2.72852Z" fill="white"/>
</mask>
<g mask="url(#mask36_797_2633)">
<path d="M52.2977 0.48972C52.3675 0.17065 42.334 2.88796 45.4347 10.5477C49.4612 10.1807 49.7762 2.86919 49.9347 2.80037C49.7149 10.187 46.7727 11.1859 46.6754 11.2568C53.7667 11.5466 49.104 2.68984 52.2977 0.48972Z" fill="#00FF7F"/>
</g>
</g>
</g>
</g>
<mask id="mask37_797_2633" style="mask-type:luminance" maskUnits="userSpaceOnUse" x="32" y="1" width="14" height="23">
<path d="M32.5273 1.06836H45.5136V23.4909H32.5273V1.06836Z" fill="white"/>
</mask>
<g mask="url(#mask37_797_2633)">
<mask id="mask38_797_2633" style="mask-type:luminance" maskUnits="userSpaceOnUse" x="27" y="1" width="26" height="26">
<path d="M27.4023 18.6494L35.6582 1.24023L52.5653 9.04598L44.3115 26.4551L27.4023 18.6494Z" fill="white"/>
</mask>
<g mask="url(#mask38_797_2633)">
<mask id="mask39_797_2633" style="mask-type:luminance" maskUnits="userSpaceOnUse" x="27" y="1" width="26" height="26">
<path d="M27.4023 18.6494L35.6582 1.24023L52.5653 9.04598L44.3115 26.4551L27.4023 18.6494Z" fill="white"/>
</mask>
<g mask="url(#mask39_797_2633)">
<path d="M43.2121 21.67C43.1635 21.7743 43.117 21.8744 43.0642 21.9745C42.5675 22.9859 41.388 23.4489 40.3206 23.0485C38.3782 22.3186 34.8949 20.5189 33.3477 16.6087C31.8217 12.7381 32.5551 7.78941 35.5354 1.89808L35.7531 1.47266L36.1673 1.72082C36.3153 1.8105 39.862 3.96474 42.3244 7.02823C43.8758 8.96142 44.7466 10.9697 44.9939 13.1636C45.2793 15.7182 44.679 18.5773 43.2121 21.67ZM35.8883 3.19522C33.3942 8.45466 32.8193 12.857 34.1826 16.2938C35.603 19.8849 38.839 21.5553 40.6398 22.231C41.2697 22.4687 41.9735 22.1976 42.2673 21.5949C43.7638 18.5377 44.3831 15.7328 44.1083 13.2574C43.8821 11.2325 43.0684 9.37225 41.6227 7.57462C39.7373 5.22225 37.1142 3.38708 36.1124 2.73225C36.0363 2.88449 35.9623 3.03881 35.8883 3.19522Z" fill="#00FF7F"/>
</g>
</g>
</g>
<mask id="mask40_797_2633" style="mask-type:luminance" maskUnits="userSpaceOnUse" x="35" y="3" width="10" height="24">
<path d="M35.7734 3.73633H44.972V26.6927H35.7734V3.73633Z" fill="white"/>
</mask>
<g mask="url(#mask40_797_2633)">
<mask id="mask41_797_2633" style="mask-type:luminance" maskUnits="userSpaceOnUse" x="27" y="1" width="26" height="26">
<path d="M27.4023 18.6474L35.6582 1.23828L52.5653 9.04403L44.3115 26.4532L27.4023 18.6474Z" fill="white"/>
</mask>
<g mask="url(#mask41_797_2633)">
<mask id="mask42_797_2633" style="mask-type:luminance" maskUnits="userSpaceOnUse" x="27" y="1" width="26" height="26">
<path d="M27.4023 18.6474L35.6582 1.23828L52.5653 9.04403L44.3115 26.4532L27.4023 18.6474Z" fill="white"/>
</mask>
<g mask="url(#mask42_797_2633)">
<path d="M43.624 26.0289C43.2351 25.6452 42.9371 25.2635 42.6243 24.8631C42.322 24.4648 42.024 24.0623 41.7598 23.6432C41.2081 22.8132 40.7283 21.9435 40.2845 21.0614C39.3946 19.293 38.7077 17.4411 38.1159 15.5705L37.7058 14.1566C37.5727 13.6873 37.4733 13.2056 37.355 12.7322C37.1098 11.7854 36.9576 10.8178 36.7737 9.86058C36.6765 9.38302 36.6194 8.89503 36.5497 8.41538C36.4799 7.93364 36.4207 7.44982 36.3594 6.97018C36.2664 6.00045 36.1924 5.03073 36.129 4.06101C36.1269 4.02764 36.1502 3.99636 36.1861 3.99427C36.2157 3.99219 36.2432 4.01513 36.2495 4.04641L36.8054 6.89927C37.04 7.83771 37.2112 8.78658 37.4649 9.71877C37.7185 10.6489 37.9531 11.5831 38.2575 12.4945C38.4012 12.9512 38.5301 13.4183 38.6887 13.8688L39.1727 15.2243C39.8385 17.0198 40.6036 18.7779 41.4702 20.4775C41.912 21.3221 42.3622 22.1646 42.8589 22.9717C42.9794 23.1739 43.102 23.3825 43.2351 23.5764C43.3619 23.7745 43.4845 23.9831 43.6198 24.175C43.8798 24.5587 44.163 24.9612 44.4293 25.299L44.4462 25.324C44.6322 25.5597 44.5857 25.8996 44.3469 26.081C44.1292 26.2458 43.8164 26.2228 43.624 26.0289Z" fill="#00FF7F"/>
</g>
</g>
</g>
<mask id="mask43_797_2633" style="mask-type:luminance" maskUnits="userSpaceOnUse" x="39" y="11" width="5" height="8">
<path d="M39.0195 11.2109H43.3483V18.6851H39.0195V11.2109Z" fill="white"/>
</mask>
<g mask="url(#mask43_797_2633)">
<mask id="mask44_797_2633" style="mask-type:luminance" maskUnits="userSpaceOnUse" x="27" y="1" width="26" height="26">
<path d="M27.4023 18.6474L35.6582 1.23828L52.5653 9.04403L44.3115 26.4532L27.4023 18.6474Z" fill="white"/>
</mask>
<g mask="url(#mask44_797_2633)">
<mask id="mask45_797_2633" style="mask-type:luminance" maskUnits="userSpaceOnUse" x="27" y="1" width="26" height="26">
<path d="M27.4023 18.6474L35.6582 1.23828L52.5653 9.04403L44.3115 26.4532L27.4023 18.6474Z" fill="white"/>
</mask>
<g mask="url(#mask45_797_2633)">
<path d="M39.1994 17.7357C39.3812 17.1247 39.601 16.5617 39.8547 16.0007C40.1062 15.4418 40.3936 14.8996 40.7149 14.3803C41.0404 13.8652 41.4145 13.3751 41.8204 12.9205C42.2367 12.4721 42.7081 12.078 43.2175 11.7422C43.2407 11.7276 43.2703 11.7339 43.2851 11.7568C43.302 11.7756 43.2957 11.8069 43.2745 11.8236V11.8256C42.8095 12.2031 42.3974 12.6348 42.0465 13.104C41.702 13.5837 41.3976 14.0883 41.1398 14.6159C40.884 15.1436 40.6684 15.6899 40.4824 16.2447C40.3028 16.7952 40.1463 17.3729 40.047 17.9213V17.9339C40.0047 18.1653 39.7807 18.3238 39.5418 18.28C39.3072 18.2383 39.1466 18.0173 39.191 17.7837C39.1952 17.767 39.1973 17.7524 39.1994 17.7357Z" fill="#00FF7F"/>
</g>
</g>
</g>
<mask id="mask46_797_2633" style="mask-type:luminance" maskUnits="userSpaceOnUse" x="37" y="8" width="5" height="6">
<path d="M37.3945 8.00781H41.1822V13.3465H37.3945V8.00781Z" fill="white"/>
</mask>
<g mask="url(#mask46_797_2633)">
<mask id="mask47_797_2633" style="mask-type:luminance" maskUnits="userSpaceOnUse" x="27" y="1" width="26" height="26">
<path d="M27.4023 18.6474L35.6582 1.23828L52.5653 9.04403L44.3115 26.4532L27.4023 18.6474Z" fill="white"/>
</mask>
<g mask="url(#mask47_797_2633)">
<mask id="mask48_797_2633" style="mask-type:luminance" maskUnits="userSpaceOnUse" x="27" y="1" width="26" height="26">
<path d="M27.4023 18.6474L35.6582 1.23828L52.5653 9.04403L44.3115 26.4532L27.4023 18.6474Z" fill="white"/>
</mask>
<g mask="url(#mask48_797_2633)">
<path d="M37.8196 12.8215C37.9358 12.3647 38.0796 11.9414 38.2486 11.5139C38.4177 11.0947 38.6101 10.6797 38.832 10.2835C39.0582 9.88934 39.3139 9.50771 39.6077 9.16153C39.91 8.81743 40.2482 8.50879 40.6286 8.26063C40.6455 8.25228 40.6688 8.25437 40.6793 8.27105C40.6878 8.28774 40.6857 8.30859 40.673 8.31902C40.3285 8.60055 40.0305 8.93005 39.7768 9.28457C39.5316 9.64952 39.3245 10.0353 39.1469 10.4336C38.9736 10.8361 38.8299 11.247 38.7115 11.6661C38.5953 12.0811 38.4959 12.517 38.4346 12.9299L38.4368 12.9382C38.4114 13.1072 38.2529 13.2239 38.0859 13.201C37.9147 13.176 37.7963 13.0217 37.8196 12.8569C37.8153 12.8402 37.8153 12.8319 37.8196 12.8215Z" fill="#00FF7F"/>
</g>
</g>
</g>
<mask id="mask49_797_2633" style="mask-type:luminance" maskUnits="userSpaceOnUse" x="33" y="13" width="7" height="3">
<path d="M33.0664 13.3477H39.0184V15.4831H33.0664V13.3477Z" fill="white"/>
</mask>
<g mask="url(#mask49_797_2633)">
<mask id="mask50_797_2633" style="mask-type:luminance" maskUnits="userSpaceOnUse" x="27" y="1" width="26" height="26">
<path d="M27.4023 18.6494L35.6582 1.24023L52.5653 9.04598L44.3115 26.4551L27.4023 18.6494Z" fill="white"/>
</mask>
<g mask="url(#mask50_797_2633)">
<mask id="mask51_797_2633" style="mask-type:luminance" maskUnits="userSpaceOnUse" x="27" y="1" width="26" height="26">
<path d="M27.4023 18.6494L35.6582 1.24023L52.5653 9.04598L44.3115 26.4551L27.4023 18.6494Z" fill="white"/>
</mask>
<g mask="url(#mask51_797_2633)">
<path d="M38.1188 15.074C37.7954 14.8696 37.4276 14.6757 37.062 14.5068C36.6921 14.3358 36.3158 14.1919 35.929 14.0647C35.5444 13.9354 35.147 13.8332 34.7433 13.7602C34.3417 13.6747 33.9338 13.6413 33.5195 13.6184L33.5153 13.6163C33.4857 13.6142 33.4688 13.5892 33.4688 13.5642C33.4709 13.5412 33.4899 13.5204 33.5153 13.5183C33.9316 13.5016 34.3544 13.4953 34.7708 13.5412C35.1893 13.5808 35.6078 13.6413 36.0178 13.7352C36.43 13.8248 36.84 13.9375 37.2353 14.0793C37.6369 14.219 38.0237 14.3712 38.421 14.5714C38.5669 14.6486 38.626 14.8217 38.5478 14.9677C38.4718 15.1115 38.2963 15.1679 38.1484 15.0928C38.1378 15.0886 38.1315 15.0844 38.123 15.0761L38.1188 15.074Z" fill="#00FF7F"/>
</g>
</g>
</g>
<mask id="mask52_797_2633" style="mask-type:luminance" maskUnits="userSpaceOnUse" x="34" y="18" width="7" height="3">
<path d="M34.6914 18.1523H40.6434V20.2878H34.6914V18.1523Z" fill="white"/>
</mask>
<g mask="url(#mask52_797_2633)">
<mask id="mask53_797_2633" style="mask-type:luminance" maskUnits="userSpaceOnUse" x="27" y="1" width="26" height="26">
<path d="M27.4023 18.6494L35.6582 1.24023L52.5653 9.04598L44.3115 26.4551L27.4023 18.6494Z" fill="white"/>
</mask>
<g mask="url(#mask53_797_2633)">
<mask id="mask54_797_2633" style="mask-type:luminance" maskUnits="userSpaceOnUse" x="27" y="1" width="26" height="26">
<path d="M27.4023 18.6494L35.6582 1.24023L52.5653 9.04598L44.3115 26.4551L27.4023 18.6494Z" fill="white"/>
</mask>
<g mask="url(#mask54_797_2633)">
<path d="M39.8384 19.9699C39.4917 19.7989 39.0965 19.6363 38.7097 19.4924C38.3208 19.3464 37.9255 19.2171 37.5239 19.1087C37.1223 18.994 36.7123 18.9001 36.3001 18.8292C35.888 18.75 35.4695 18.7083 35.0467 18.677L35.0425 18.6749C35.0023 18.6728 34.9706 18.6374 34.9728 18.5977C34.977 18.5623 35.0045 18.531 35.0446 18.5289C35.4716 18.4997 35.9049 18.481 36.3339 18.4997C36.7651 18.5143 37.1942 18.5477 37.6254 18.6061C38.0545 18.6603 38.4835 18.7333 38.9084 18.825C39.3353 18.9168 39.7496 19.019 40.185 19.1608C40.4196 19.238 40.5443 19.4882 40.4682 19.7176C40.3921 19.9491 40.1385 20.0721 39.906 19.9971C39.887 19.9929 39.8658 19.9845 39.8489 19.9762L39.8384 19.9699Z" fill="#00FF7F"/>
</g>
</g>
</g>
<mask id="mask55_797_2633" style="mask-type:luminance" maskUnits="userSpaceOnUse" x="34" y="9" width="4" height="3">
<path d="M34.1484 9.07617H37.9361V11.2117H34.1484V9.07617Z" fill="white"/>
</mask>
<g mask="url(#mask55_797_2633)">
<mask id="mask56_797_2633" style="mask-type:luminance" maskUnits="userSpaceOnUse" x="27" y="1" width="26" height="26">
<path d="M27.4023 18.6474L35.6582 1.23828L52.5653 9.04403L44.3115 26.4532L27.4023 18.6474Z" fill="white"/>
</mask>
<g mask="url(#mask56_797_2633)">
<mask id="mask57_797_2633" style="mask-type:luminance" maskUnits="userSpaceOnUse" x="27" y="1" width="26" height="26">
<path d="M27.4023 18.6474L35.6582 1.23828L52.5653 9.04403L44.3115 26.4532L27.4023 18.6474Z" fill="white"/>
</mask>
<g mask="url(#mask57_797_2633)">
<path d="M37.3067 10.8799C36.9157 10.5775 36.4887 10.2918 36.0512 10.0353C35.6137 9.7746 35.1571 9.54311 34.6815 9.35334C34.6604 9.34291 34.6498 9.32206 34.6604 9.3012C34.6689 9.28452 34.69 9.27409 34.709 9.27826C35.2121 9.40965 35.7045 9.58274 36.1801 9.78919C36.6599 9.99356 37.1228 10.2209 37.5857 10.4878C37.704 10.5545 37.74 10.7026 37.6723 10.8173C37.6047 10.9341 37.4568 10.9695 37.3384 10.9028C37.3278 10.8986 37.3236 10.8903 37.313 10.8861L37.3067 10.8799Z" fill="#00FF7F"/>
</g>
</g>
</g>
<path d="M0.414062 48.7125V23.0117H9.25756C12.018 23.0117 14.3219 23.5873 16.165 24.7385C18.0123 25.8854 19.4031 27.4287 20.3331 29.3681C21.2631 31.3096 21.7281 33.4618 21.7281 35.8246C21.7281 38.4334 21.2208 40.7024 20.2062 42.6314C19.1917 44.5625 17.7481 46.0578 15.8775 47.1192C14.0048 48.1828 11.7982 48.7125 9.25756 48.7125H0.414062ZM19.1579 35.8246C19.1579 33.7725 18.7711 31.9519 17.9996 30.3608C17.2323 28.7717 16.1142 27.5225 14.6431 26.6153C13.1763 25.7103 11.3818 25.2556 9.25756 25.2556H2.98426V46.4686H9.25756C11.4092 46.4686 13.2185 45.9994 14.6854 45.0588C16.1502 44.1204 17.2598 42.8462 18.0165 41.2383C18.7774 39.6326 19.1579 37.8266 19.1579 35.8246Z" fill="#00FF7F"/>
<path d="M24.0156 48.7125V23.0117H26.5858V48.7125H24.0156Z" fill="#00FF7F"/>
<path d="M82.9648 48.7017V22.9258H94.0065C95.1331 22.9258 96.1624 23.1573 97.0925 23.6181C98.0267 24.0749 98.8447 24.6984 99.5443 25.4867C100.242 26.2708 100.781 27.1425 101.159 28.0976C101.542 29.0549 101.734 30.0308 101.734 31.0256C101.734 32.2602 101.493 33.4238 101.015 34.5124C100.536 35.5968 99.8592 36.5144 98.9863 37.2652C98.1176 38.0159 97.0946 38.5144 95.9173 38.7583L102.317 48.7017H99.4175L93.271 39.1921H85.5435V48.7017H82.9648ZM85.5435 36.9399H94.0826C95.1077 36.9399 96.0018 36.6625 96.7627 36.1057C97.5236 35.551 98.1112 34.819 98.5297 33.9118C98.9461 33.0005 99.1554 32.0391 99.1554 31.0256C99.1554 29.9808 98.9144 29.0194 98.4367 28.1393C97.9569 27.2551 97.3207 26.5419 96.526 25.9955C95.7313 25.4512 94.8435 25.178 93.8628 25.178H85.5435V36.9399Z" fill="#00FF7F"/>
<path d="M81.3832 46.4695V48.7134H63.8906V23.0293H81.0534V25.2732H66.4608V34.5325H79.185V36.668H66.4608V46.4695H81.3832Z" fill="#00FF7F"/>
<path d="M121.188 46.4686V48.7125H103.688V23.0117H120.859V25.2556H106.258V34.5233H118.99V36.6587H106.258V46.4686H121.188Z" fill="#00FF7F"/>
</g>
<defs>
<clipPath id="clip0_797_2633">
<rect width="121.259" height="50.0631" fill="white"/>
</clipPath>
</defs>
</svg>
