<svg width="74" height="63" viewBox="0 0 74 63" fill="none" xmlns="http://www.w3.org/2000/svg">
<path d="M33.4444 31.5V33.2857H40.5556V31.5M47.6667 44H26.3333C25.8618 44 25.4097 43.8119 25.0763 43.477C24.7429 43.1421 24.5556 42.6879 24.5556 42.2143V26.1429H49.4444V42.2143C49.4444 42.6879 49.2571 43.1421 48.9237 43.477C48.5904 43.8119 48.1382 44 47.6667 44ZM22.7778 19H51.2222C52.2041 19 53 19.7995 53 20.7857V24.3571C53 25.3434 52.2041 26.1429 51.2222 26.1429H22.7778C21.7959 26.1429 21 25.3434 21 24.3571V20.7857C21 19.7995 21.7959 19 22.7778 19Z" stroke="#00FF7F" stroke-width="3" stroke-linejoin="round"/>
</svg>
